<?xml version="1.0" encoding="UTF-8"?>
<svg id="Layer_2" data-name="Layer 2" xmlns="http://www.w3.org/2000/svg" viewBox="0 0 291.43 375.98">
  <defs>
    <style>
      .cls-1 {
        fill: #fff;
      }

      .cls-2 {
        fill: #28aadc;
      }

      .cls-3 {
        fill: #64ebb6;
      }

      .cls-4 {
        fill: #183e9f;
      }
    </style>
  </defs>
  <g id="Layer_1-2" data-name="Layer 1">
    <g>
      <g>
        <path class="cls-3" d="m291.43,75c0,19.2-7.32,38.39-21.97,53.03l-24.94,24.94c-.11.11-.22.23-.33.34l-14.07,14.06-84.4,84.41-17.41-17.41v-28.55h49.61c5.71,0,10.34-4.63,10.34-10.34v-50.91c0-5.71-4.63-10.34-10.34-10.34h-49.61v-45.96c0-5.71-4.63-10.34-10.34-10.34h-50.92c-5.7,0-10.33,4.63-10.33,10.34v45.96h-28.55l-6.2-6.2c-29.29-29.28-29.29-76.77,0-106.06C36.61,7.32,55.81,0,75.01,0s38.38,7.32,53.03,21.97l17.68,17.68,17.67-17.68c29.29-29.29,76.78-29.29,106.07,0,14.65,14.65,21.97,33.84,21.97,53.03Z"/>
        <path class="cls-2" d="m261.67,111.11c0,15.13-5.72,30.26-17.15,41.86-.11.11-.22.23-.33.34l-14.07,14.06-84.4,84.41-17.41-17.41v-28.55h49.61c5.71,0,10.34-4.63,10.34-10.34v-50.91c0-5.71-4.63-10.34-10.34-10.34h-49.61v-45.96c0-5.71-4.63-10.34-10.34-10.34h-50.92c-5.7,0-10.33,4.63-10.33,10.34v45.96h-22.3c-9.11-21.68-4.83-47.66,12.83-65.32,11.64-11.66,26.92-17.48,42.2-17.48s30.54,5.82,42.2,17.48l14.07,14.07,14.06-14.07c23.31-23.31,61.1-23.31,84.41,0,11.65,11.66,17.48,26.93,17.48,42.2Z"/>
        <path class="cls-1" d="m188.26,144.57v50.91c0,5.71-4.63,10.34-10.34,10.34h-49.61v28.55l-28.55-28.55L28.17,134.23h28.55v-45.96c0-5.71,4.63-10.34,10.33-10.34h50.92c5.71,0,10.34,4.63,10.34,10.34v45.96h49.61c5.71,0,10.34,4.63,10.34,10.34Z"/>
      </g>
      <g>
        <g>
          <path class="cls-4" d="m4.76,352.57h5.18v8.46h4.6v-8.46h5.18v22.81h-5.18v-9.48h-4.6v9.48h-5.18v-22.81Z"/>
          <path class="cls-4" d="m24.6,352.57h10.48v4.85h-5.3v4.2h4.6v4.73h-4.6v4.15h5.33v4.87h-10.51v-22.81Z"/>
          <path class="cls-4" d="m55.16,375.38h-5.38l-.87-3.81h-5.47l-.91,3.81h-5.28l6.05-22.81h5.81l6.05,22.81Zm-7.25-7.91c-.78-3.4-1.36-6.62-1.74-9.69h-.07c-.41,3.16-.99,6.39-1.73,9.69h3.54Z"/>
          <path class="cls-4" d="m57.77,352.57h5.18v17.53h4.1v5.28h-9.28v-22.81Z"/>
          <path class="cls-4" d="m68.21,352.57h12.36v5.21h-3.57v17.6h-5.25v-17.6h-3.54v-5.21Z"/>
          <path class="cls-4" d="m83.78,352.57h5.18v8.46h4.6v-8.46h5.18v22.81h-5.18v-9.48h-4.6v9.48h-5.18v-22.81Z"/>
          <path class="cls-4" d="m124.18,370v5.42c-1.09.35-2.07.53-2.94.53-3,0-5.43-1.12-7.29-3.38-1.86-2.25-2.79-5.21-2.79-8.88,0-3.41.94-6.22,2.82-8.43,1.88-2.22,4.26-3.32,7.13-3.32,1.12,0,2.14.15,3.08.44v5.43c-.99-.33-1.93-.5-2.8-.5-1.34,0-2.46.62-3.35,1.85s-1.33,2.8-1.33,4.7c0,2.05.45,3.67,1.34,4.86.89,1.19,2.09,1.79,3.58,1.79.73,0,1.58-.17,2.56-.51Z"/>
          <path class="cls-4" d="m143.49,375.38h-5.38l-.87-3.81h-5.47l-.91,3.81h-5.28l6.05-22.81h5.81l6.05,22.81Zm-7.25-7.91c-.78-3.4-1.36-6.62-1.74-9.69h-.07c-.41,3.16-.99,6.39-1.73,9.69h3.54Z"/>
          <path class="cls-4" d="m146.11,352.57h6.03c2.44,0,4.36.63,5.78,1.88,1.41,1.25,2.12,2.96,2.12,5.11,0,1.11-.27,2.17-.8,3.2-.54,1.03-1.32,1.81-2.34,2.33l4.14,10.29h-5.47l-4.19-10.39h-.08v10.39h-5.18v-22.81Zm5.18,4.41v5.42c2.29-.04,3.43-.85,3.43-2.41,0-1.06-.26-1.82-.79-2.27-.53-.46-1.41-.7-2.64-.74Z"/>
          <path class="cls-4" d="m163.95,352.57h10.48v4.85h-5.3v4.2h4.6v4.73h-4.6v4.15h5.33v4.87h-10.51v-22.81Z"/>
          <path class="cls-4" d="m187.12,374.95v-5.31c1.64.96,3.02,1.44,4.14,1.44.65,0,1.16-.18,1.54-.54.38-.36.56-.83.56-1.43,0-.46-.15-.88-.45-1.28-.3-.4-.82-.88-1.56-1.45-1.79-1.37-3.08-2.64-3.89-3.82-.8-1.18-1.21-2.49-1.21-3.94,0-1.97.62-3.58,1.86-4.82,1.24-1.24,2.85-1.86,4.82-1.86,1.46,0,2.91.31,4.34.94v5.11c-1.54-.84-2.79-1.26-3.74-1.26-.64,0-1.14.16-1.51.47-.37.31-.55.74-.55,1.29,0,.96.86,2.03,2.58,3.23,1.03.71,2.06,1.7,3.12,2.98,1.05,1.28,1.58,2.77,1.58,4.45,0,1.97-.69,3.6-2.07,4.9-1.38,1.29-3.13,1.94-5.25,1.94-1.45,0-2.88-.34-4.31-1.03Z"/>
          <path class="cls-4" d="m200.28,352.57h5.81c1.29,3.28,2.22,5.81,2.8,7.59h.07c.58-1.82,1.5-4.35,2.77-7.59h5.95l-6.12,12.49v10.32h-5.25v-10.32l-6.03-12.49Z"/>
          <path class="cls-4" d="m220.34,374.95v-5.31c1.64.96,3.02,1.44,4.14,1.44.65,0,1.16-.18,1.54-.54.38-.36.56-.83.56-1.43,0-.46-.15-.88-.45-1.28-.3-.4-.82-.88-1.56-1.45-1.79-1.37-3.08-2.64-3.89-3.82-.8-1.18-1.21-2.49-1.21-3.94,0-1.97.62-3.58,1.86-4.82,1.24-1.24,2.85-1.86,4.82-1.86,1.46,0,2.91.31,4.34.94v5.11c-1.54-.84-2.79-1.26-3.74-1.26-.64,0-1.14.16-1.51.47-.37.31-.55.74-.55,1.29,0,.96.86,2.03,2.58,3.23,1.03.71,2.06,1.7,3.12,2.98,1.05,1.28,1.58,2.77,1.58,4.45,0,1.97-.69,3.6-2.07,4.9-1.38,1.29-3.13,1.94-5.25,1.94-1.45,0-2.88-.34-4.31-1.03Z"/>
          <path class="cls-4" d="m233.97,352.57h12.36v5.21h-3.57v17.6h-5.25v-17.6h-3.54v-5.21Z"/>
          <path class="cls-4" d="m249.53,352.57h10.48v4.85h-5.3v4.2h4.6v4.73h-4.6v4.15h5.33v4.87h-10.51v-22.81Z"/>
          <path class="cls-4" d="m265.79,352.57h6.54c.93,4.92,1.67,9.15,2.21,12.7l.56-3.54c.23-1.38.47-2.72.73-4.03l1.01-5.13h6.68l2.6,22.81h-5.13l-1.38-15.69-3.2,15.69h-3.5l-3.35-15.72-1.33,15.72h-4.9l2.46-22.81Z"/>
        </g>
        <g>
          <path class="cls-4" d="m.69,269.61h10.01l5.92,31.45h.14l5.37-31.45h9.08l5.44,31.09h.14l5.64-31.09h10.29l-11.01,52.15h-9.43l-4.37-23.32c-.48-2.55-.88-5.01-1.2-7.38h-.14c-.57,4.04-.99,6.73-1.24,8.09l-4.33,22.62h-9.29L.69,269.61Z"/>
          <path class="cls-4" d="m70.19,310.78h8.43c-1.61,8.07-5.62,12.11-12.04,12.11-4.01,0-7.19-1.73-9.53-5.2-2.34-3.46-3.51-8.24-3.51-14.34,0-5.68,1.17-10.23,3.51-13.65,2.34-3.42,5.45-5.14,9.33-5.14,2.34,0,4.59.83,6.74,2.48,2.16,1.65,3.73,3.85,4.71,6.58s1.54,7.04,1.65,12.93h-16.69c.14,5.34,1.45,8.01,3.92,8.01.85,0,1.61-.35,2.27-1.05s1.07-1.61,1.2-2.73Zm-7.26-10.39h7.26c-.07-2.53-.38-4.39-.93-5.61s-1.42-1.82-2.62-1.82c-1.33,0-2.28.59-2.86,1.76s-.86,3.06-.86,5.66Z"/>
          <path class="cls-4" d="m85.61,266.72h10.01v55.04h-10.01v-55.04Z"/>
          <path class="cls-4" d="m103.77,266.72h10.01v55.04h-10.01v-55.04Z"/>
          <path class="cls-4" d="m122.76,320.78v-12.15c3.3,2.19,6.08,3.28,8.33,3.28,1.31,0,2.34-.41,3.1-1.23.76-.82,1.13-1.91,1.13-3.26,0-1.04-.3-2.02-.91-2.93-.61-.91-1.66-2.02-3.15-3.32-3.6-3.12-6.21-6.04-7.83-8.73s-2.43-5.7-2.43-9c0-4.5,1.25-8.18,3.75-11.02,2.5-2.84,5.73-4.26,9.7-4.26,2.94,0,5.85.72,8.74,2.15v11.68c-3.1-1.93-5.61-2.89-7.54-2.89-1.29,0-2.3.36-3.04,1.07-.75.72-1.12,1.7-1.12,2.95,0,2.19,1.73,4.65,5.2,7.38,2.06,1.62,4.16,3.89,6.28,6.82,2.12,2.93,3.18,6.32,3.18,10.18,0,4.51-1.39,8.24-4.16,11.19-2.78,2.96-6.3,4.43-10.56,4.43-2.91,0-5.8-.78-8.67-2.34Z"/>
          <path class="cls-4" d="m162.5,285.82v4.57h.17c2.22-3.72,4.74-5.59,7.54-5.59,3,0,5.42,1.74,7.24,5.21s2.74,8.16,2.74,14.04-.93,10.26-2.8,13.75c-1.87,3.49-4.26,5.23-7.17,5.23-3.07,0-5.59-2-7.54-6.02h-.17v19.53h-9.98v-50.74h9.98Zm7.71,17.85c0-5.91-1.32-8.87-3.96-8.87-2.5,0-3.75,2.98-3.75,8.95s1.25,9.22,3.75,9.22c2.64,0,3.96-3.1,3.96-9.3Z"/>
          <path class="cls-4" d="m195.64,285.82v6.02h.14c2.38-4.69,4.9-7.03,7.53-7.03.39,0,.93.08,1.62.23v11.13c-1.22-.23-2.34-.35-3.37-.35-3.67,0-5.51,2.7-5.51,8.09v17.85h-9.98v-35.94h9.57Z"/>
          <path class="cls-4" d="m210.33,275.04c0-1.67.52-3.09,1.55-4.26s2.27-1.76,3.72-1.76,2.72.59,3.75,1.76,1.55,2.59,1.55,4.26-.52,3.05-1.55,4.24c-1.03,1.19-2.28,1.78-3.75,1.78s-2.66-.59-3.7-1.78c-1.04-1.18-1.57-2.6-1.57-4.24Zm.28,10.78h10.01v35.94h-10.01v-35.94Z"/>
          <path class="cls-4" d="m238.47,285.82v4.88h.17c2.34-4.04,5.2-6.05,8.57-6.05,2.2,0,3.95.83,5.25,2.5,1.29,1.67,1.94,3.92,1.94,6.76v27.85h-10.01v-22.15c0-1.22-.25-2.23-.76-3.01s-1.16-1.17-1.96-1.17c-2.13,0-3.2,1.52-3.2,4.57v21.76h-9.98v-35.94h9.98Z"/>
          <path class="cls-4" d="m277.66,321.91v-5.12c-1.95,3.26-4.27,4.88-6.95,4.88-3.39,0-6.03-1.61-7.91-4.82-1.88-3.22-2.82-7.77-2.82-13.65s.92-10.27,2.75-13.55,4.35-4.92,7.54-4.92c2.84,0,5.24,1.63,7.19,4.88h.14v-3.79h10.01v33.28c0,3.05-.48,5.94-1.43,8.67-.95,2.73-2.63,4.88-5.04,6.45s-5.05,2.34-7.91,2.34-5.56-.87-8.08-2.62c-2.52-1.75-4.16-4.66-4.92-8.75h8.95c1.03,1.82,2.32,2.73,3.85,2.73,1.31,0,2.41-.58,3.3-1.74.89-1.16,1.34-2.58,1.34-4.28Zm0-18.87c0-5.81-1.28-8.71-3.85-8.71-1.26,0-2.26.7-2.99,2.11s-1.1,3.36-1.1,5.86c0,6.56,1.34,9.84,4.03,9.84s3.92-3.03,3.92-9.1Z"/>
        </g>
      </g>
    </g>
  </g>
</svg>