<?xml version="1.0" encoding="UTF-8"?>
<svg id="Layer_2" data-name="Layer 2" xmlns="http://www.w3.org/2000/svg" viewBox="0 0 291.43 375.98">
  <defs>
    <style>
      .cls-1 {
        fill: #fff;
      }

      .cls-2 {
        fill: #28aadc;
      }

      .cls-3 {
        fill: #64ebb6;
      }

      .cls-4 {
        fill: #183e9f;
      }
    </style>
  </defs>
  <g id="Layer_1-2" data-name="Layer 1">
    <g>
      <g>
        <path class="cls-3" d="m291.43,75c0,19.2-7.32,38.39-21.97,53.03l-24.94,24.94c-.11.11-.22.23-.33.34l-14.07,14.06-84.4,84.41-17.41-17.41v-28.55h49.61c5.71,0,10.34-4.63,10.34-10.34v-50.91c0-5.71-4.63-10.34-10.34-10.34h-49.61v-45.96c0-5.71-4.63-10.34-10.34-10.34h-50.92c-5.7,0-10.33,4.63-10.33,10.34v45.96h-28.55l-6.2-6.2c-29.29-29.28-29.29-76.77,0-106.06C36.61,7.32,55.81,0,75.01,0s38.38,7.32,53.03,21.97l17.68,17.68,17.67-17.68c29.29-29.29,76.78-29.29,106.07,0,14.65,14.65,21.97,33.84,21.97,53.03Z"/>
        <path class="cls-2" d="m261.67,111.11c0,15.13-5.72,30.26-17.15,41.86-.11.11-.22.23-.33.34l-14.07,14.06-84.4,84.41-17.41-17.41v-28.55h49.61c5.71,0,10.34-4.63,10.34-10.34v-50.91c0-5.71-4.63-10.34-10.34-10.34h-49.61v-45.96c0-5.71-4.63-10.34-10.34-10.34h-50.92c-5.7,0-10.33,4.63-10.33,10.34v45.96h-22.3c-9.11-21.68-4.83-47.66,12.83-65.32,11.64-11.66,26.92-17.48,42.2-17.48s30.54,5.82,42.2,17.48l14.07,14.07,14.06-14.07c23.31-23.31,61.1-23.31,84.41,0,11.65,11.66,17.48,26.93,17.48,42.2Z"/>
        <path class="cls-1" d="m188.26,144.57v50.91c0,5.71-4.63,10.34-10.34,10.34h-49.61v28.55l-28.55-28.55L28.17,134.23h28.55v-45.96c0-5.71,4.63-10.34,10.33-10.34h50.92c5.71,0,10.34,4.63,10.34,10.34v45.96h49.61c5.71,0,10.34,4.63,10.34,10.34Z"/>
      </g>
      <g>
        <path class="cls-4" d="m4.76,352.57h5.18v8.46h4.6v-8.46h5.18v22.81h-5.18v-9.48h-4.6v9.48h-5.18v-22.81Z"/>
        <path class="cls-4" d="m24.6,352.57h10.48v4.85h-5.3v4.2h4.6v4.73h-4.6v4.15h5.33v4.87h-10.51v-22.81Z"/>
        <path class="cls-4" d="m55.16,375.38h-5.38l-.87-3.81h-5.47l-.91,3.81h-5.28l6.05-22.81h5.81l6.05,22.81Zm-7.25-7.91c-.78-3.4-1.36-6.62-1.74-9.69h-.07c-.41,3.16-.99,6.39-1.73,9.69h3.54Z"/>
        <path class="cls-4" d="m57.77,352.57h5.18v17.53h4.1v5.28h-9.28v-22.81Z"/>
        <path class="cls-4" d="m68.21,352.57h12.36v5.21h-3.57v17.6h-5.25v-17.6h-3.54v-5.21Z"/>
        <path class="cls-4" d="m83.78,352.57h5.18v8.46h4.6v-8.46h5.18v22.81h-5.18v-9.48h-4.6v9.48h-5.18v-22.81Z"/>
        <path class="cls-4" d="m124.18,370v5.42c-1.09.35-2.07.53-2.94.53-3,0-5.43-1.12-7.29-3.38-1.86-2.25-2.79-5.21-2.79-8.88,0-3.41.94-6.22,2.82-8.43,1.88-2.22,4.26-3.32,7.13-3.32,1.12,0,2.14.15,3.08.44v5.43c-.99-.33-1.93-.5-2.8-.5-1.34,0-2.46.62-3.35,1.85s-1.33,2.8-1.33,4.7c0,2.05.45,3.67,1.34,4.86.89,1.19,2.09,1.79,3.58,1.79.73,0,1.58-.17,2.56-.51Z"/>
        <path class="cls-4" d="m143.49,375.38h-5.38l-.87-3.81h-5.47l-.91,3.81h-5.28l6.05-22.81h5.81l6.05,22.81Zm-7.25-7.91c-.78-3.4-1.36-6.62-1.74-9.69h-.07c-.41,3.16-.99,6.39-1.73,9.69h3.54Z"/>
        <path class="cls-4" d="m146.11,352.57h6.03c2.44,0,4.36.63,5.78,1.88,1.41,1.25,2.12,2.96,2.12,5.11,0,1.11-.27,2.17-.8,3.2-.54,1.03-1.32,1.81-2.34,2.33l4.14,10.29h-5.47l-4.19-10.39h-.08v10.39h-5.18v-22.81Zm5.18,4.41v5.42c2.29-.04,3.43-.85,3.43-2.41,0-1.06-.26-1.82-.79-2.27-.53-.46-1.41-.7-2.64-.74Z"/>
        <path class="cls-4" d="m163.95,352.57h10.48v4.85h-5.3v4.2h4.6v4.73h-4.6v4.15h5.33v4.87h-10.51v-22.81Z"/>
        <path class="cls-4" d="m187.12,374.95v-5.31c1.64.96,3.02,1.44,4.14,1.44.65,0,1.16-.18,1.54-.54.38-.36.56-.83.56-1.43,0-.46-.15-.88-.45-1.28-.3-.4-.82-.88-1.56-1.45-1.79-1.37-3.08-2.64-3.89-3.82-.8-1.18-1.21-2.49-1.21-3.94,0-1.97.62-3.58,1.86-4.82,1.24-1.24,2.85-1.86,4.82-1.86,1.46,0,2.91.31,4.34.94v5.11c-1.54-.84-2.79-1.26-3.74-1.26-.64,0-1.14.16-1.51.47-.37.31-.55.74-.55,1.29,0,.96.86,2.03,2.58,3.23,1.03.71,2.06,1.7,3.12,2.98,1.05,1.28,1.58,2.77,1.58,4.45,0,1.97-.69,3.6-2.07,4.9-1.38,1.29-3.13,1.94-5.25,1.94-1.45,0-2.88-.34-4.31-1.03Z"/>
        <path class="cls-4" d="m200.28,352.57h5.81c1.29,3.28,2.22,5.81,2.8,7.59h.07c.58-1.82,1.5-4.35,2.77-7.59h5.95l-6.12,12.49v10.32h-5.25v-10.32l-6.03-12.49Z"/>
        <path class="cls-4" d="m220.34,374.95v-5.31c1.64.96,3.02,1.44,4.14,1.44.65,0,1.16-.18,1.54-.54.38-.36.56-.83.56-1.43,0-.46-.15-.88-.45-1.28-.3-.4-.82-.88-1.56-1.45-1.79-1.37-3.08-2.64-3.89-3.82-.8-1.18-1.21-2.49-1.21-3.94,0-1.97.62-3.58,1.86-4.82,1.24-1.24,2.85-1.86,4.82-1.86,1.46,0,2.91.31,4.34.94v5.11c-1.54-.84-2.79-1.26-3.74-1.26-.64,0-1.14.16-1.51.47-.37.31-.55.74-.55,1.29,0,.96.86,2.03,2.58,3.23,1.03.71,2.06,1.7,3.12,2.98,1.05,1.28,1.58,2.77,1.58,4.45,0,1.97-.69,3.6-2.07,4.9-1.38,1.29-3.13,1.94-5.25,1.94-1.45,0-2.88-.34-4.31-1.03Z"/>
        <path class="cls-4" d="m233.97,352.57h12.36v5.21h-3.57v17.6h-5.25v-17.6h-3.54v-5.21Z"/>
        <path class="cls-4" d="m249.53,352.57h10.48v4.85h-5.3v4.2h4.6v4.73h-4.6v4.15h5.33v4.87h-10.51v-22.81Z"/>
        <path class="cls-4" d="m265.79,352.57h6.54c.93,4.92,1.67,9.15,2.21,12.7l.56-3.54c.23-1.38.47-2.72.73-4.03l1.01-5.13h6.68l2.6,22.81h-5.13l-1.38-15.69-3.2,15.69h-3.5l-3.35-15.72-1.33,15.72h-4.9l2.46-22.81Z"/>
      </g>
      <g>
        <path class="cls-4" d="m2.32,273.66h11.22l6.63,31.05h.15l6.02-31.05h10.18l6.1,30.71h.15l6.33-30.71h11.53l-12.34,51.5h-10.57l-4.9-23.03c-.54-2.52-.99-4.95-1.35-7.29h-.15c-.64,3.99-1.11,6.65-1.39,7.99l-4.86,22.33h-10.42l-12.34-51.5Z"/>
        <path class="cls-4" d="m80.23,314.32h9.45c-1.8,7.97-6.3,11.96-13.5,11.96-4.5,0-8.06-1.71-10.68-5.13-2.62-3.42-3.94-8.14-3.94-14.16,0-5.61,1.31-10.1,3.94-13.48,2.62-3.38,6.11-5.07,10.45-5.07,2.62,0,5.14.82,7.56,2.45,2.42,1.63,4.18,3.8,5.29,6.5,1.1,2.7,1.72,6.96,1.85,12.77h-18.71c.15,5.27,1.62,7.91,4.4,7.91.95,0,1.8-.35,2.55-1.04.75-.7,1.2-1.59,1.35-2.7Zm-8.14-10.26h8.14c-.08-2.49-.42-4.34-1.04-5.54-.62-1.2-1.59-1.79-2.93-1.79-1.49,0-2.56.58-3.2,1.74-.64,1.16-.96,3.02-.96,5.59Z"/>
        <path class="cls-4" d="m97.52,270.81h11.23v54.35h-11.23v-54.35Z"/>
        <path class="cls-4" d="m117.88,270.81h11.23v54.35h-11.23v-54.35Z"/>
        <path class="cls-4" d="m139.18,324.19v-12c3.7,2.16,6.81,3.24,9.34,3.24,1.46,0,2.62-.41,3.47-1.21.85-.81,1.27-1.88,1.27-3.22,0-1.03-.34-1.99-1.02-2.89-.68-.9-1.86-1.99-3.53-3.28-4.04-3.09-6.96-5.96-8.78-8.62-1.81-2.66-2.72-5.62-2.72-8.89,0-4.45,1.4-8.07,4.21-10.88,2.8-2.8,6.43-4.21,10.88-4.21,3.29,0,6.56.71,9.8,2.12v11.53c-3.47-1.9-6.29-2.85-8.45-2.85-1.44,0-2.58.35-3.41,1.06-.84.71-1.25,1.68-1.25,2.91,0,2.16,1.94,4.59,5.82,7.29,2.31,1.59,4.66,3.84,7.04,6.73,2.38,2.89,3.57,6.24,3.57,10.05,0,4.45-1.56,8.13-4.67,11.05-3.11,2.92-7.06,4.38-11.84,4.38-3.27,0-6.51-.77-9.72-2.31Z"/>
        <path class="cls-4" d="m183.27,289.67v5.94h.15c2.67-4.63,5.49-6.94,8.45-6.94.44,0,1.04.08,1.81.23v10.99c-1.36-.23-2.62-.35-3.78-.35-4.12,0-6.17,2.66-6.17,7.98v17.63h-11.19v-35.49h10.72Z"/>
        <path class="cls-4" d="m199.74,279.02c0-1.65.58-3.05,1.74-4.21,1.16-1.16,2.55-1.74,4.17-1.74s3.05.58,4.21,1.74c1.16,1.16,1.74,2.56,1.74,4.21s-.58,3.02-1.74,4.19c-1.16,1.17-2.56,1.75-4.21,1.75s-2.98-.58-4.15-1.75c-1.17-1.17-1.76-2.57-1.76-4.19Zm.31,10.65h11.23v35.49h-11.23v-35.49Z"/>
        <path class="cls-4" d="m231.29,289.67v4.82h.19c2.62-3.99,5.83-5.98,9.6-5.98,2.47,0,4.43.82,5.88,2.47,1.45,1.65,2.18,3.87,2.18,6.67v27.5h-11.22v-21.87c0-1.21-.28-2.2-.85-2.97s-1.3-1.16-2.2-1.16c-2.39,0-3.59,1.5-3.59,4.51v21.49h-11.19v-35.49h11.19Z"/>
        <path class="cls-4" d="m275.23,325.31v-5.05c-2.19,3.21-4.78,4.82-7.79,4.82-3.81,0-6.76-1.59-8.87-4.76-2.11-3.18-3.16-7.67-3.16-13.48s1.03-10.15,3.09-13.39,4.87-4.86,8.45-4.86c3.19,0,5.88,1.61,8.06,4.82h.15v-3.74h11.23v32.87c0,3.01-.53,5.86-1.6,8.56-1.07,2.7-2.95,4.82-5.65,6.36s-5.66,2.31-8.87,2.31-6.24-.86-9.06-2.58c-2.83-1.72-4.67-4.6-5.52-8.64h10.03c1.16,1.8,2.6,2.7,4.32,2.7,1.47,0,2.7-.57,3.7-1.72s1.5-2.55,1.5-4.22Zm0-18.63c0-5.73-1.44-8.6-4.32-8.6-1.42,0-2.53.69-3.36,2.08-.82,1.39-1.23,3.32-1.23,5.79,0,6.48,1.5,9.72,4.51,9.72s4.4-3,4.4-8.99Z"/>
      </g>
    </g>
  </g>
</svg>